<?xml version="1.0" encoding="UTF-8" standalone="no"?>
<svg
   width="306.72772mm"
   height="65.542793mm"
   viewBox="0 0 306.72772 65.542793"
   id="svg1019"
   inkscape:version="1.0.2-2 (e86c870879, 2021-01-15)"
   sodipodi:docname="pwr_logo.svg"
   version="1.1"
   inkscape:export-filename="pwr_logo_black.svg"
   inkscape:export-xdpi="96"
   inkscape:export-ydpi="96"
   xmlns:inkscape="http://www.inkscape.org/namespaces/inkscape"
   xmlns:sodipodi="http://sodipodi.sourceforge.net/DTD/sodipodi-0.dtd"
   xmlns="http://www.w3.org/2000/svg"
   xmlns:svg="http://www.w3.org/2000/svg">
  <sodipodi:namedview
     id="namedview11"
     pagecolor="#505050"
     bordercolor="#eeeeee"
     borderopacity="1"
     inkscape:showpageshadow="0"
     inkscape:pageopacity="0"
     inkscape:pagecheckerboard="0"
     inkscape:deskcolor="#505050"
     inkscape:document-units="mm"
     showgrid="false" />
  <defs
     id="defs1013" />
  <metadata
     id="metadata3" />
  <g
     inkscape:label="Warstwa 1"
     inkscape:groupmode="layer"
     id="layer1"
     transform="translate(434.57815,65.277354)">
    <g
       id="Group 6"
       transform="matrix(0.25533833,0,0,0.25533833,-435.43098,480.69217)"
       style="fill:#000000">
      <path
         id="Object 7"
         class="shp0"
         d="m 254.86,-2138.22 v 0 l 5.13,5.14 v 251.55 H 8.47 l -5.13,-5.14 h 251.52 z"
         style="fill:#000000" />
      <path
         id="Object 8"
         fill-rule="evenodd"
         class="shp0"
         d="m 132.87,-1912.33 h -0.05 c -1.98,-4.66 -3.18,-9.05 -3.76,-12.45 -0.43,-2.56 -0.58,-4.8 -0.56,-6.79 0.02,-1.98 0.2,-3.72 0.38,-5.24 0.37,-3.06 0.8,-5.34 0.13,-7.28 -0.94,-0.55 -6.15,6.02 -9.63,6.56 -5.78,0.9 -6.39,-3.45 -10.64,-5.07 3.12,-1.19 5.44,-0.95 8.16,-2.35 2.36,-1.22 4.02,-3.71 6.63,-4.46 1.8,-0.52 3.9,-0.31 6.13,0.85 0.79,0 0.19,-1.58 -0.49,-3.66 -0.53,-1.62 -1.3,-3.61 -1.34,-5.32 -0.03,-1.53 0.55,-2.84 1.83,-3.68 -1.3,-2.23 -2.11,-4.47 -2.23,-6.09 -0.26,-3.73 0.96,-5.69 0.81,-8.36 -0.1,-1.91 -0.07,-4.68 -0.8,-5.73 -2.8,1.07 -7.45,16.93 -7.82,19.91 l -4.08,-2.47 -2.54,4.45 c -0.96,1.69 3.91,6.73 -1.3,9.46 l -0.19,-0.12 c 0.49,-1.49 0.51,-2.83 -0.65,-4.34 -1.95,-2.56 -4.62,-0.74 -8.4,-3.3 -1.95,-2.24 -4.56,-2.43 -6.27,-1.72 -1.17,0.49 -2.07,1.42 -2.17,3.19 l -0.23,0.1 c -1.11,-2.51 -0.12,-4.49 1.42,-5.72 3.84,-3.06 13.26,1.77 14.3,0 l 2.37,-4.02 -4.05,-2.54 c 10.19,-7.28 10.24,-19.75 9.46,-31.11 l -0.65,-0.33 c -1.67,10.46 -6.23,18.34 -13.47,23.92 -2.73,2.09 -6.1,4.03 -9.83,0.87 4.48,-3 8.94,-9.25 10.4,-14.51 1.44,-5.14 2.06,-11.13 1.85,-17.79 l -0.54,-0.45 c -2.02,11.63 -8.34,17.56 -12.58,20.63 -2.99,2.18 -6.6,4.15 -9.9,1.17 4.86,-3.98 8.64,-9.22 10.59,-14.69 2.04,-5.71 2.71,-12.02 2.17,-18.38 l -0.47,-0.61 c -2.54,10.84 -5.2,16.21 -11.41,20.94 -3.12,2.37 -6.69,3.75 -10.23,0.55 6.44,-4.92 9.09,-9.3 10.91,-16.82 1.8,-7.43 2.89,-13.8 2.78,-22.12 l -0.48,-1.71 c -2.45,13.82 -6.26,22.42 -10.72,26.23 -3.01,2.57 -6.93,4.47 -9.27,1.7 2.98,-3.42 4.87,-7.14 5.87,-11.17 2.05,-8.23 1.61,-15.09 1.45,-26.12 -0.1,-7.2 0.68,-14.07 4.06,-20.16 3.47,-6.26 11.18,-7.83 16.8,-6.2 9.15,2.77 11.51,13.62 7.19,20.35 -2.28,3.55 -1.93,8.1 -0.71,10.34 1.49,2.74 4.58,5.57 7.58,7.99 2.71,2.2 10.45,7.55 15.25,6.78 -0.22,-2.82 0.54,-5.89 1.48,-9.02 0.93,-3.12 2.04,-6.3 2.52,-9.32 0.43,-2.73 0.07,-5.97 -1.33,-7.83 -1.62,-1.65 -3.28,-2.44 -4.91,-3.01 -2.1,-0.73 -3.33,-1.07 -4.57,-2.75 -0.65,-0.88 -0.86,-2.54 -1,-4.34 1.11,1.21 1.97,2.03 2.97,2.55 0.89,0.46 3.51,1.21 4.32,0.28 -0.86,-1.9 -2.43,-3.53 -4.31,-4.45 -2.51,-1.23 -4.89,-0.72 -6.74,1.26 -0.53,-1.98 -0.2,-4.36 1.39,-5.81 1.65,-1.51 5.1,-0.97 6.93,0.01 -0.23,-1.45 0.54,-2.84 2.61,-3.05 1.42,-0.14 2.87,0.27 4.21,0.65 2.02,0.57 3.54,1.45 5.41,2.45 v -10.96 h 79.3 c -0.65,34.98 -1.23,144.16 -79.2,170.23 h -0.06 c 1.99,-4.67 3.23,-9.04 3.81,-12.45 0.43,-2.56 0.58,-4.8 0.56,-6.79 -0.01,-1.98 -0.2,-3.72 -0.38,-5.24 -0.37,-3.06 -0.8,-5.34 -0.13,-7.28 0.94,-0.54 6.16,6.02 9.63,6.56 5.78,0.9 6.39,-3.45 10.64,-5.07 -3.12,-1.19 -5.44,-0.95 -8.16,-2.35 -2.36,-1.22 -4.02,-3.71 -6.63,-4.46 -1.8,-0.52 -3.9,-0.31 -6.13,0.85 -0.79,0 -0.19,-1.58 0.49,-3.66 0.53,-1.62 1.3,-3.61 1.34,-5.32 0.03,-1.53 -0.55,-2.84 -1.83,-3.68 1.3,-2.23 2.11,-4.47 2.23,-6.09 0.26,-3.73 -0.96,-5.68 -0.81,-8.36 0.11,-1.91 0.07,-4.68 0.8,-5.73 2.8,1.08 7.45,16.93 7.82,19.91 l 4.08,-2.47 2.54,4.45 c 0.96,1.69 -3.91,6.74 1.3,9.46 l 0.19,-0.12 c -0.49,-1.49 -0.51,-2.83 0.65,-4.34 1.95,-2.56 4.62,-0.74 8.4,-3.3 1.95,-2.24 4.56,-2.43 6.27,-1.72 1.17,0.49 2.07,1.42 2.17,3.19 l 0.23,0.1 c 1.11,-2.51 0.12,-4.49 -1.42,-5.72 -3.84,-3.06 -13.26,1.77 -14.3,0 l -2.36,-4.01 4.04,-2.55 c -10.19,-7.28 -10.24,-19.75 -9.46,-31.11 l 0.65,-0.33 c 1.67,10.46 6.23,18.34 13.47,23.92 2.73,2.09 6.1,4.03 9.83,0.87 -4.48,-3 -8.93,-9.25 -10.4,-14.51 -1.44,-5.14 -2.06,-11.13 -1.84,-17.79 l 0.53,-0.45 c 2.02,11.63 8.34,17.57 12.58,20.63 3,2.18 6.6,4.15 9.91,1.17 -4.87,-3.98 -8.65,-9.22 -10.6,-14.69 -2.04,-5.71 -2.71,-12.02 -2.17,-18.38 l 0.47,-0.61 c 2.54,10.84 5.21,16.21 11.41,20.94 3.12,2.37 6.7,3.75 10.24,0.55 -6.45,-4.92 -9.1,-9.3 -10.92,-16.82 -1.8,-7.43 -2.88,-13.8 -2.78,-22.12 l 0.48,-1.71 c 2.45,13.82 6.26,22.42 10.72,26.23 3.01,2.57 6.93,4.47 9.27,1.7 -2.98,-3.42 -4.87,-7.14 -5.87,-11.17 -2.05,-8.23 -1.61,-15.09 -1.45,-26.12 0.1,-7.2 -0.68,-14.06 -4.06,-20.16 -3.46,-6.26 -11.18,-7.83 -16.8,-6.2 -9.15,2.77 -11.51,13.62 -7.19,20.35 2.28,3.55 1.93,8.1 0.71,10.34 -1.49,2.74 -4.57,5.57 -7.58,8 -2.71,2.19 -10.44,7.55 -15.25,6.77 0.22,-2.81 -0.54,-5.89 -1.48,-9.02 -0.93,-3.12 -2.04,-6.3 -2.52,-9.31 -0.43,-2.74 -0.07,-5.97 1.33,-7.84 1.62,-1.65 3.28,-2.44 4.92,-3.01 2.1,-0.73 3.32,-1.07 4.56,-2.75 0.65,-0.88 0.86,-2.54 1,-4.33 -1.1,1.2 -1.97,2.02 -2.96,2.54 -0.9,0.46 -3.52,1.21 -4.33,0.28 0.86,-1.9 2.43,-3.53 4.31,-4.45 2.51,-1.23 4.89,-0.72 6.74,1.26 0.53,-1.98 0.2,-4.36 -1.39,-5.81 -1.65,-1.51 -5.1,-0.97 -6.93,0.01 0.23,-1.45 -0.54,-2.84 -2.61,-3.05 -1.42,-0.14 -2.87,0.27 -4.21,0.65 -2.02,0.57 -3.53,1.45 -5.41,2.45 v 0 l -0.01,55.75 c -23.48,-0.75 -41.03,-23.92 -43.18,-45.58 h -0.48 c 0.58,29.22 14.65,51.93 43.65,53.76 l 0.01,-8.18 c 0,0 0,0 0,0 l -0.01,8.18 c 0,0 0,0 0,0 z m -45.39,-147.51 c 0,-1.7 -1.3,-3.08 -2.91,-3.08 -1.6,0 -2.91,1.38 -2.91,3.08 0,1.7 1.31,3.08 2.91,3.08 1.61,0 2.91,-1.38 2.91,-3.08 z m 9.89,-0.89 c 0,-1.69 -1.31,-3.08 -2.91,-3.08 -1.61,0 -2.92,1.39 -2.92,3.08 0,1.7 1.31,3.08 2.92,3.08 1.6,0 2.91,-1.38 2.91,-3.08 z m -5.35,-5.41 c 0,-1.7 -1.31,-3.08 -2.91,-3.08 -1.61,0 -2.92,1.38 -2.92,3.08 0,1.69 1.31,3.08 2.92,3.08 1.6,0 2.91,-1.39 2.91,-3.08 z m 30.11,-4.76 c 0.68,0.33 1.35,0.89 1.87,1.47 0.76,0.92 3.22,0.47 4.63,0.89 0.85,0.25 1.25,0.61 1.31,0.45 -0.42,-0.87 -0.72,-1.74 -1.44,-2.42 -1.55,-1.48 -6.24,-2.51 -6.37,-0.39 z m 56.21,11.06 c 0,-1.7 1.3,-3.08 2.91,-3.08 1.6,0 2.91,1.38 2.91,3.08 0,1.7 -1.31,3.08 -2.91,3.08 -1.61,0 -2.91,-1.38 -2.91,-3.08 z m -9.89,-0.89 c 0,-1.69 1.31,-3.08 2.91,-3.08 1.61,0 2.92,1.39 2.92,3.08 0,1.7 -1.31,3.09 -2.92,3.09 -1.6,0 -2.91,-1.39 -2.91,-3.09 z m 5.35,-5.41 c 0,-1.7 1.31,-3.08 2.92,-3.08 1.6,0 2.91,1.38 2.91,3.08 0,1.69 -1.31,3.08 -2.91,3.08 -1.61,0 -2.92,-1.39 -2.92,-3.08 z m 2.78,4.71 c -0.58,29.22 -14.65,51.93 -43.65,53.76 v -8.18 c 23.47,-0.75 41.02,-23.92 43.17,-45.58 z m -32.89,-9.47 c -0.68,0.33 -1.35,0.89 -1.87,1.47 -0.76,0.92 -3.22,0.47 -4.63,0.89 -0.85,0.26 -1.25,0.61 -1.31,0.45 0.42,-0.87 0.72,-1.74 1.44,-2.42 1.55,-1.48 6.25,-2.51 6.37,-0.39 z m -86.54,158.57 h -0.72 l -15.58,-192.98 h 0.36 c 2.69,7.51 9.92,9.4 15.94,5.12 z m 155.06,-188.58 v 0.72 H 57.15 c 5.46,-5.51 3.39,-14.16 -3.79,-17.18 v -0.31 z"
         style="fill:#000000" />
      <path
         id="Object 9"
         fill-rule="evenodd"
         class="shp0"
         d="m 320.73,-1939.31 c -1.51,0 -3.83,0 -6.59,-0.18 v 12.48 c 0,3.57 0.09,8.47 0.44,14.71 -1.25,-0.18 -2.4,-0.36 -3.65,-0.36 -1.43,0 -2.85,0.18 -4.37,0.46 0.36,-9.64 0.53,-19.53 0.53,-29.7 0,-10.69 -0.17,-20.59 -0.53,-29.86 1.69,0.18 3.03,0.27 4.28,0.27 4.37,0 9.18,-0.63 14.53,-0.63 12.66,0 19.52,5.71 19.52,15.34 0,11.05 -8.38,17.47 -24.16,17.47 z m -0.8,-29.33 c -1.78,0 -3.56,0.09 -5.44,0.27 -0.26,5.61 -0.44,11.59 -0.44,17.92 v 7.84 c 1.33,0.09 2.58,0.18 3.92,0.18 12.48,0 18.72,-4.55 18.72,-13.64 0,-9.36 -5.26,-12.57 -16.76,-12.57 z m 46.54,57.24 c -12.04,0 -20.69,-8.66 -20.69,-21.4 0,-12.66 8.92,-21.31 20.69,-21.31 12.12,0 20.68,8.65 20.68,21.31 0,13.01 -8.83,21.4 -20.68,21.4 z m -0.09,-40.12 c -8.56,0 -13.2,6.32 -13.2,18.63 0,12.39 4.64,18.81 13.29,18.81 8.55,0 13.19,-6.24 13.19,-18.19 0,-12.66 -4.64,-19.25 -13.28,-19.25 z m 33.78,39.04 c -1.16,0 -2.32,0.09 -3.48,0.28 0.36,-5.81 0.36,-14.26 0.36,-25.39 v -22.88 c 0,-6.6 0,-12.2 -0.36,-17.01 1.16,0.09 2.41,0.18 3.48,0.18 1.25,0 2.59,-0.09 3.75,-0.18 -0.36,8.01 -0.36,16.92 -0.36,26.8 0,18.07 0.09,30.91 0.36,38.48 -1.25,-0.19 -2.5,-0.28 -3.75,-0.28 z m 21.04,-51.61 c -2.41,0 -4.46,-1.97 -4.46,-4.37 0,-2.5 2.05,-4.37 4.46,-4.37 2.5,0 4.46,1.87 4.46,4.37 0,2.4 -1.96,4.37 -4.46,4.37 z m 0,51.43 c -1.16,0 -2.32,0.18 -3.57,0.46 0.27,-7.14 0.45,-14.38 0.45,-21.6 0,-6.69 -0.18,-13.21 -0.45,-19.54 1.25,0.27 2.41,0.36 3.57,0.36 1.25,0 2.5,-0.09 3.56,-0.36 -0.26,6.42 -0.44,12.85 -0.44,19.54 0,7.22 0.18,14.46 0.44,21.6 -1.06,-0.28 -2.31,-0.46 -3.56,-0.46 z m 27.99,1.35 c -8.11,0 -11.14,-3.75 -11.14,-11.97 0,-4.37 0.44,-12.3 0.44,-23.73 v -2.94 h -0.89 c -1.51,0 -3.03,0.09 -4.55,0.27 0.09,-0.8 0.18,-1.61 0.18,-2.32 0,-0.53 -0.09,-0.98 -0.09,-1.34 1.79,0.18 3.75,0.27 5.53,0.27 v -2.94 c 0,-2.57 -0.09,-4.98 -0.18,-7.28 2.68,-0.45 5,-1.16 7.05,-2.14 -0.18,3.73 -0.27,5.96 -0.27,6.85 v 5.69 c 3.21,0 6.95,-0.09 11.32,-0.45 -0.18,0.81 -0.27,1.79 -0.27,2.86 v 0.71 c -3.12,-0.18 -5.79,-0.27 -8.02,-0.27 -1.16,0 -2.23,0 -3.12,0.09 -0.09,2.41 -0.18,3.92 -0.18,4.37 0,5.52 -0.36,12.23 -0.36,20.16 0,7.68 1.79,11.07 7.31,11.07 1.52,0 3.57,-0.63 6.07,-1.87 l 0.62,1.96 c -2.85,1.87 -6.15,2.95 -9.45,2.95 z m 48.58,-22.03 h -30.04 v 0.27 c 0,11.86 5.17,18.18 14.62,18.18 5.08,0 9.36,-1.87 13.46,-5.88 -0.09,1.16 -0.17,2.32 -0.17,3.3 v 1.07 c -4.55,3.3 -9.45,5 -14.8,5 -12.31,0 -20.6,-8.75 -20.6,-21.32 0,-12.92 7.94,-21.48 20.06,-21.48 11.06,0 17.56,6.78 17.56,18.99 0,0.62 -0.09,1.25 -0.09,1.87 z m -6.95,-4.46 c 0,-8.73 -4.19,-13.72 -10.87,-13.72 -6.51,0 -11.68,5.79 -12.04,15.15 h 22.91 z m 46.89,-5.35 c -2.49,-5.52 -6.42,-8.2 -11.86,-8.2 -9.18,0 -14.62,6.69 -14.62,18.55 0,11.49 6.16,18.45 15.16,18.45 4.9,0 9,-2.05 13.19,-6.33 -0.09,1.25 -0.17,2.32 -0.17,3.21 0,0.62 0,1.25 0.08,1.78 -3.92,3.03 -8.73,4.38 -14.88,4.38 -12.13,0 -20.42,-8.39 -20.42,-21.41 0,-12.92 8.65,-21.39 21.66,-21.39 4.91,0 9.63,1.16 14.18,3.48 -0.98,2.14 -1.78,4.72 -2.32,7.48 z m 41.28,30.49 c -1.16,0 -2.32,0.18 -3.57,0.46 0.27,-9.64 0.45,-17.4 0.45,-23.19 0,-9.81 -2.5,-14.35 -9.9,-14.35 -4.1,0 -7.4,1.96 -9.36,5.7 -1.52,3.03 -1.69,8.12 -1.69,15.43 v 6.24 c 0,2.05 0.09,5.43 0.17,10.17 -1.15,-0.28 -2.4,-0.46 -3.65,-0.46 -1.16,0 -2.32,0.18 -3.48,0.46 0.36,-15.79 0.45,-26.67 0.45,-32.73 0,-11.5 -0.18,-22.33 -0.45,-32.55 1.34,0.18 2.59,0.36 3.66,0.36 1.25,0 2.49,-0.18 3.56,-0.36 -0.17,7.28 -0.26,13.77 -0.26,19.37 0,3.73 0.09,7.74 0.09,11.93 3.74,-5.52 7.75,-7.93 13.55,-7.93 9.27,0 13.9,5.08 13.9,15.16 0,3.74 -0.27,8.2 -0.27,13.37 0,3.12 0.18,7.57 0.36,13.38 -1.07,-0.28 -2.32,-0.46 -3.56,-0.46 z m 47.51,0 c -1.16,0 -2.32,0.18 -3.57,0.46 0.36,-6.07 0.54,-14.36 0.54,-24.7 0,-8.56 -3.3,-12.84 -9.9,-12.84 -3.38,0 -6.15,1.16 -8.11,3.74 -2.76,3.39 -2.94,7.76 -2.94,13.55 v 3.92 c 0,6.51 0,11.86 0.18,16.33 -1.16,-0.28 -2.41,-0.46 -3.66,-0.46 -1.16,0 -2.31,0.18 -3.56,0.46 0.35,-4.91 0.35,-9.91 0.35,-15.17 v -6.15 c 0,-7.13 0,-13.64 -0.35,-19.79 1.25,0.27 2.49,0.36 3.56,0.36 1.25,0 2.41,-0.09 3.48,-0.36 -0.09,1.52 -0.18,2.94 -0.18,4.37 0,1.07 0.09,2.14 0.09,3.21 3.3,-5.71 7.76,-8.47 13.64,-8.47 9.27,0 13.91,5.17 13.91,15.6 0,4.28 -0.18,8.56 -0.18,12.66 0,4.28 0.09,8.83 0.26,13.74 -1.15,-0.28 -2.4,-0.46 -3.56,-0.46 z m 20.86,-51.43 c -2.41,0 -4.46,-1.97 -4.46,-4.37 0,-2.5 2.05,-4.37 4.46,-4.37 2.49,0 4.46,1.87 4.46,4.37 0,2.4 -1.97,4.37 -4.46,4.37 z m 0,51.43 c -1.16,0 -2.32,0.18 -3.57,0.46 0.27,-7.14 0.45,-14.38 0.45,-21.6 0,-6.69 -0.18,-13.21 -0.45,-19.54 1.25,0.27 2.41,0.36 3.57,0.36 1.25,0 2.49,-0.09 3.56,-0.36 -0.26,6.42 -0.44,12.85 -0.44,19.54 0,7.22 0.18,14.46 0.44,21.6 -1.07,-0.28 -2.31,-0.46 -3.56,-0.46 z m 48.05,0.09 c -1.52,0 -3.03,0.09 -4.46,0.37 -10.79,-14.56 -17.12,-21.6 -18.45,-21.6 -0.8,0 -0.8,0.36 -0.8,1.16 v 4.9 c 0,3.49 0,8.75 0.44,15.54 -1.16,-0.28 -2.41,-0.46 -3.65,-0.46 -1.16,0 -2.41,0.18 -3.66,0.46 0.36,-13.49 0.45,-24.36 0.45,-32.76 0,-10.68 -0.09,-21.51 -0.45,-32.52 1.25,0.18 2.5,0.36 3.66,0.36 1.24,0 2.49,-0.18 3.65,-0.36 -0.36,14.11 -0.44,26.55 -0.44,37.44 v 2.94 c 0,0.98 0.44,1.52 1.42,1.52 1.61,0 8.65,-5.62 18.19,-17.76 1.33,0.18 2.58,0.27 3.83,0.27 1.25,0 2.59,-0.09 3.83,-0.27 -2.94,1.96 -6.59,5.26 -11.32,9.72 l -7.84,7.41 c 5.79,6.78 12.65,14.73 20.5,24.01 -1.6,-0.28 -3.3,-0.37 -4.9,-0.37 z m 37.97,0.36 c -3.03,0 -4.28,-1.61 -4.81,-5.08 -3.66,3.83 -8.02,5.89 -13.02,5.89 -7.75,0 -12.03,-3.93 -12.03,-10.71 0,-6.24 3.3,-9.89 10.16,-11.41 7.67,-1.6 12.93,-1.96 15.16,-3.92 v -1.87 c 0,-7.67 -2.68,-11.41 -9.72,-11.41 -4.81,0 -8.56,2.05 -11.23,6.15 h -0.72 l 0.18,-4.55 c 3.75,-3.21 8.65,-4.9 14.09,-4.9 9.89,0 13.73,4.72 13.73,14.62 v 1.07 l -0.36,14.89 v 2.4 c 0,4.19 0.53,5.8 3.83,5.8 0.45,0 0.98,0 1.52,-0.09 l 0.35,1.69 c -2.4,0.72 -4.63,1.43 -7.13,1.43 z m -4.72,-21.57 c -12.57,2.05 -18.01,3.65 -18.01,10.51 0,5.26 2.94,8.29 7.76,8.29 2.85,0 6.41,-1.51 8.73,-3.83 1.43,-1.43 1.52,-2.5 1.52,-3.74 z m 102.25,21.58 c -0.98,-0.28 -1.96,-0.37 -3.03,-0.37 -1.07,0 -2.05,0.09 -3.12,0.46 -4.64,-15.97 -10.08,-32.19 -16.05,-48.78 -8.38,25.32 -13.73,41.55 -16.31,48.69 -0.98,-0.28 -1.96,-0.46 -3.03,-0.46 -0.98,0 -1.96,0.18 -3.03,0.46 -5.62,-18.55 -11.86,-38.34 -18.64,-59.56 1.34,0.27 2.77,0.36 4.19,0.36 1.34,0 2.77,-0.09 4.11,-0.36 4.45,16.49 9.44,33.61 15.15,51.26 5.88,-16.23 11.41,-33.25 16.31,-51.26 0.98,0.27 1.87,0.36 2.86,0.36 0.89,0 1.87,-0.09 2.85,-0.36 5.08,16.58 10.61,33.43 16.76,50.37 5.7,-16.5 10.78,-33.34 15.15,-50.37 0.89,0.27 1.78,0.36 2.77,0.36 0.98,0 1.96,-0.09 2.94,-0.36 -6.87,20.32 -13.37,40.11 -19.88,59.56 z m 43.77,-34.51 -0.72,0.44 c -1.42,-0.8 -2.76,-1.15 -4.19,-1.15 -6.59,0 -9.09,5.79 -9.09,17.65 0,7.75 0.18,13.64 0.45,17.57 -1.25,-0.28 -2.59,-0.37 -3.84,-0.37 -1.07,0 -2.14,0.09 -3.29,0.27 0.26,-6.15 0.44,-15.69 0.44,-28.44 0,-4.63 -0.09,-8.82 -0.44,-12.57 1.33,0.27 2.58,0.36 3.74,0.36 1.25,0 2.5,-0.09 3.65,-0.36 -0.26,2.77 -0.44,5.97 -0.44,9.54 3.12,-6.6 6.6,-9.98 10.87,-9.98 0.81,0 1.88,0.18 3.3,0.44 -0.35,1.79 -0.44,4.1 -0.44,6.6 z m 25.23,35.31 c -12.04,0 -20.69,-8.66 -20.69,-21.4 0,-12.66 8.92,-21.31 20.69,-21.31 12.12,0 20.68,8.65 20.68,21.31 0,13.01 -8.83,21.4 -20.68,21.4 z m -0.09,-40.12 c -8.56,0 -13.2,6.32 -13.2,18.63 0,12.39 4.64,18.81 13.29,18.81 8.55,0 13.19,-6.24 13.19,-18.19 0,-12.66 -4.64,-19.25 -13.28,-19.25 z m 60.35,8.37 c -2.5,-5.52 -6.42,-8.2 -11.86,-8.2 -9.18,0 -14.62,6.69 -14.62,18.55 0,11.49 6.15,18.45 15.16,18.45 4.9,0 9,-2.05 13.19,-6.33 -0.09,1.25 -0.18,2.32 -0.18,3.21 0,0.62 0,1.25 0.09,1.78 -3.92,3.03 -8.74,4.38 -14.89,4.38 -12.12,0 -20.41,-8.39 -20.41,-21.41 0,-12.92 8.65,-21.39 21.66,-21.39 4.9,0 9.63,1.16 14.18,3.48 -0.99,2.14 -1.79,4.72 -2.32,7.48 z m 17.47,-8.06 c 0,20.92 0.18,33.47 0.44,39.01 -1.24,-0.19 -2.49,-0.28 -3.74,-0.28 -1.16,0 -2.32,0.09 -3.48,0.28 0.18,-5.09 0.36,-12.39 0.36,-22 v -12.64 c -0.36,0.17 -2.23,1.76 -5.97,4.79 v -4.53 c 2.67,-1.6 3.48,-2.14 6.06,-3.92 v -2.32 c 0,-9.25 -0.09,-17.45 -0.45,-24.66 1.16,0.09 2.41,0.18 3.48,0.18 1.25,0 2.59,-0.09 3.74,-0.18 -0.26,5.53 -0.44,13.36 -0.44,21.63 v 0.98 c 3.03,-2.14 5.08,-3.9 6.33,-4.98 v 4.63 c -2.94,1.78 -3.66,2.31 -6.33,4.01 z m 40.29,39 c -3.03,0 -4.28,-1.61 -4.81,-5.08 -3.65,3.83 -8.02,5.89 -13.02,5.89 -7.75,0 -12.03,-3.93 -12.03,-10.71 0,-6.24 3.3,-9.89 10.16,-11.41 7.67,-1.6 12.93,-1.96 15.16,-3.92 v -1.87 c 0,-7.67 -2.68,-11.41 -9.72,-11.41 -4.81,0 -8.56,2.05 -11.23,6.15 h -0.71 l 0.17,-4.55 c 3.75,-3.21 8.65,-4.9 14.09,-4.9 9.89,0 13.73,4.72 13.73,14.62 v 1.07 l -0.36,14.89 v 2.4 c 0,4.19 0.53,5.8 3.83,5.8 0.45,0 0.98,0 1.52,-0.09 l 0.35,1.69 c -2.4,0.72 -4.63,1.43 -7.13,1.43 z m -4.72,-21.57 c -12.57,2.05 -18.01,3.65 -18.01,10.51 0,5.26 2.94,8.29 7.76,8.29 2.85,0 6.42,-1.51 8.73,-3.83 1.43,-1.43 1.52,-2.5 1.52,-3.74 z m 61.42,21.58 c -0.89,-0.19 -1.78,-0.28 -2.67,-0.28 -0.81,0 -1.61,0.09 -2.5,0.28 -0.54,-3.22 -4.01,-13.67 -10.7,-31.51 -5.61,13.48 -9.18,24.01 -10.96,31.51 -0.8,-0.19 -1.7,-0.19 -2.5,-0.19 -0.89,0 -1.6,0 -2.5,0.19 -1.69,-7.05 -6.77,-20.8 -15.15,-41.14 1.25,0.27 2.5,0.36 3.83,0.36 1.25,0 2.59,-0.09 3.93,-0.36 1.51,6.33 5.08,16.95 10.87,31.86 4.37,-9.64 8.11,-20.25 11.41,-31.86 0.89,0.18 1.78,0.27 2.59,0.27 0.8,0 1.69,-0.09 2.58,-0.27 4.19,15.53 8.11,26.14 10.88,31.77 2.49,-5.19 6.68,-15.8 12.12,-31.77 0.98,0.09 1.79,0.18 2.68,0.18 0.89,0 1.78,-0.09 2.58,-0.18 -8.56,19.45 -14.35,33.02 -16.49,41.14 z m 30.04,0.8 c -4.37,0 -8.29,-1.08 -11.32,-3.13 0.89,-2.32 1.6,-4.55 2.14,-6.78 2.85,4.46 6.42,6.69 10.61,6.69 5.17,0 8.47,-3.03 8.47,-7.93 0,-4.1 -2.23,-5.89 -6.87,-7.13 l -4.01,-1.16 c -6.6,-1.88 -9.45,-5.08 -9.45,-11.23 0,-6.96 5.17,-12.04 13.37,-12.04 4.19,0 7.94,1.07 10.88,2.85 -0.89,1.87 -1.52,3.66 -1.87,5.53 -3.3,-3.83 -6.6,-5.79 -10.08,-5.79 -4.36,0 -7.4,2.94 -7.4,7.3 0,4.02 2.14,5.98 6.6,7.32 l 5.97,1.78 c 5.71,1.69 8.38,4.54 8.38,9.98 0,7.76 -6.15,13.74 -15.42,13.74 z m 54.83,-1.17 c -1.52,0 -3.04,0.09 -4.46,0.37 -10.79,-14.56 -17.12,-21.6 -18.45,-21.6 -0.81,0 -0.81,0.36 -0.81,1.16 v 4.9 c 0,3.49 0,8.75 0.45,15.54 -1.16,-0.28 -2.41,-0.46 -3.66,-0.46 -1.16,0 -2.4,0.18 -3.65,0.46 0.36,-13.49 0.44,-24.36 0.44,-32.76 0,-10.68 -0.08,-21.51 -0.44,-32.52 1.25,0.18 2.49,0.36 3.65,0.36 1.25,0 2.5,-0.18 3.66,-0.36 -0.36,14.11 -0.45,26.55 -0.45,37.44 v 2.94 c 0,0.98 0.45,1.52 1.43,1.52 1.6,0 8.65,-5.62 18.18,-17.76 1.34,0.18 2.59,0.27 3.84,0.27 1.25,0 2.58,-0.09 3.83,-0.27 -2.94,1.96 -6.6,5.26 -11.32,9.72 l -7.85,7.41 c 5.8,6.78 12.66,14.73 20.51,24.01 -1.61,-0.28 -3.3,-0.37 -4.9,-0.37 z m 37.97,0.36 c -3.03,0 -4.28,-1.61 -4.81,-5.08 -3.66,3.83 -8.03,5.89 -13.02,5.89 -7.75,0 -12.03,-3.93 -12.03,-10.71 0,-6.24 3.3,-9.89 10.16,-11.41 7.67,-1.6 12.93,-1.96 15.15,-3.92 v -1.87 c 0,-7.67 -2.67,-11.41 -9.71,-11.41 -4.82,0 -8.56,2.05 -11.23,6.15 h -0.72 l 0.18,-4.55 c 3.74,-3.21 8.65,-4.9 14.09,-4.9 9.89,0 13.72,4.72 13.72,14.62 v 1.07 l -0.35,14.89 v 2.4 c 0,4.19 0.53,5.8 3.83,5.8 0.45,0 0.98,0 1.52,-0.09 l 0.35,1.69 c -2.4,0.72 -4.63,1.43 -7.13,1.43 z m -4.72,-21.57 c -12.57,2.05 -18.01,3.65 -18.01,10.51 0,5.26 2.94,8.29 7.75,8.29 2.86,0 6.42,-1.51 8.74,-3.83 1.43,-1.43 1.52,-2.5 1.52,-3.74 z"
         style="fill:#000000" />
    </g>
  </g>
</svg>
